<svg id="visual" viewBox="0 0 300 400" width="300" height="400" xmlns="http://www.w3.org/2000/svg" xmlns:xlink="http://www.w3.org/1999/xlink" version="1.1"><rect x="0" y="0" width="300" height="400" fill="#ffffff"></rect><path d="M0 209L10 199.8C20 190.7 40 172.3 60 169.7C80 167 100 180 120 183.3C140 186.7 160 180.3 180 185.3C200 190.3 220 206.7 240 204.8C260 203 280 183 290 173L300 163L300 401L290 401C280 401 260 401 240 401C220 401 200 401 180 401C160 401 140 401 120 401C100 401 80 401 60 401C40 401 20 401 10 401L0 401Z" fill="#0066FF" stroke-linecap="round" stroke-linejoin="miter"></path></svg>